<?xml version="1.0" encoding="UTF-8"?>
<svg width="36px" height="42px" viewBox="0 0 36 42" version="1.1" xmlns="http://www.w3.org/2000/svg" xmlns:xlink="http://www.w3.org/1999/xlink">
    <!-- Generator: Sketch 46.2 (44496) - http://www.bohemiancoding.com/sketch -->
    <title>DDFichier 2</title>
    <desc>Created with Sketch.</desc>
    <defs></defs>
    <g id="Welcome" stroke="none" stroke-width="1" fill="none" fill-rule="evenodd">
        <g id="Desktop-HD" transform="translate(-885.000000, -885.000000)" fill-rule="nonzero" fill="#000000">
            <g id="Favorite-post" transform="translate(753.000000, 104.000000)">
                <g id="Filter-#2" transform="translate(0.000000, 685.000000)">
                    <g id="Group-4" transform="translate(54.000000, 96.000000)">
                        <g id="DDFichier-2" transform="translate(78.000000, 0.000000)">
                            <path d="M34.0032,1.5456 L32.9532,0.7476 C32.3165432,0.260905304 31.5369738,-0.0019040938 30.7356,-8.285473e-16 C29.6139567,-0.0126275981 28.550994,0.500205288 27.8628,1.386 L10.08,21 C8.86003991,22.6110582 9.17167779,24.9051635 10.7772,26.1324 L15.5232,29.736 C16.307825,30.3331085 17.3000662,30.588626 18.2755035,30.4447609 C19.2509407,30.3008958 20.1271663,29.7698021 20.706,28.9716 L34.7088,6.72 C35.3071601,5.94239395 35.5693096,4.95760499 35.4367398,3.9854264 C35.3041699,3.0132478 34.7879161,2.13460475 34.0032,1.5456 Z" id="Shape"></path>
                            <path d="M8.5932,27.0984 C6.89910038,27.1058426 5.24820035,27.6336614 3.864,28.6104 C1.8816,29.988 2.3604,32.0796 2.7468,33.7596 C3.192,35.7 3.3684,36.8424 1.8312,37.7076 C1.302,38.0016 -0.3024,38.9088 0.0504,40.2276 C0.3612,41.4036 2.058,42 5.0904,42 C7.308,42 10.4664,41.5968 12.096,40.4628 C15.6576,37.9848 16.6992,33.3144 14.4312,30.0468 C13.0944924,28.1567496 10.90771,27.0523458 8.5932,27.0984 Z" id="Shape"></path>
                        </g>
                    </g>
                </g>
            </g>
        </g>
    </g>
</svg>