<?xml version="1.0" encoding="UTF-8"?>
<svg width="42px" height="42px" viewBox="0 0 42 42" version="1.1" xmlns="http://www.w3.org/2000/svg" xmlns:xlink="http://www.w3.org/1999/xlink">
    <!-- Generator: Sketch 46.2 (44496) - http://www.bohemiancoding.com/sketch -->
    <title>Page 1</title>
    <desc>Created with Sketch.</desc>
    <defs></defs>
    <g id="Welcome" stroke="none" stroke-width="1" fill="none" fill-rule="evenodd">
        <g id="Desktop-HD" transform="translate(-943.000000, -885.000000)" fill="#000000">
            <g id="Favorite-post" transform="translate(753.000000, 104.000000)">
                <g id="Filter-#2" transform="translate(0.000000, 685.000000)">
                    <g id="Group-4" transform="translate(54.000000, 96.000000)">
                        <g id="Page-1" transform="translate(156.192308, 21.000000) scale(-1, 1) translate(-156.192308, -21.000000) translate(135.192308, 0.000000)">
                            <path d="M35.5384615,22.2195407 C35.5384615,21.9581343 35.4325347,21.696728 35.220681,21.4876029 L18.2723834,4.7053145 C17.8486759,4.28706432 17.2131148,4.28706432 16.7894073,4.7053145 L15.4653216,6.01234631 L15.4653216,14.1159435 C16.1008827,14.586475 16.5245902,15.370694 16.5245902,16.2071944 C16.5245902,17.67107 15.3593947,18.821258 13.8764187,18.821258 C12.3934426,18.821258 11.2282472,17.67107 11.2282472,16.2071944 C11.2282472,15.370694 11.6519546,14.6387562 12.2875158,14.1159435 L12.2875158,9.14922264 L10.0100883,11.3973173 L8.05044136,13.3317244 L7.52080706,13.8545371 L7.52080706,4.7053145 C7.52080706,3.24143888 8.68600252,2.09125089 10.1689786,2.09125089 C11.6519546,2.09125089 12.8171501,3.24143888 12.8171501,4.7053145 L12.8171501,14.3773499 C12.1815889,14.7433188 11.7578815,15.4229753 11.7578815,16.1549131 C11.7578815,17.3051011 12.7112232,18.246164 13.8764187,18.246164 C15.0416141,18.246164 15.9949559,17.3051011 15.9949559,16.1549131 C15.9949559,15.370694 15.5712484,14.7433188 14.9356873,14.3773499 L14.9356873,4.7053145 C14.9356873,2.09125089 12.8171501,0 10.1689786,0 C7.52080706,0 5.40226986,2.09125089 5.40226986,4.7053145 L5.40226986,15.945788 L4.92559899,16.4163195 L3.49558638,17.8279138 L1.85372005,19.4486333 C0.63556116,20.6511025 0,22.2195407 0,23.8925414 C0,25.5655421 0.63556116,27.1339803 1.85372005,28.3364495 L11.3871375,37.7470785 C12.6052963,38.9495478 14.1941992,39.5769231 15.889029,39.5769231 C17.5838588,39.5769231 19.1727617,38.9495478 20.3909206,37.7470785 L35.3795712,22.9514785 C35.4325347,22.7946347 35.5384615,22.5332283 35.5384615,22.2195407" id="Fill-1"></path>
                            <path d="M29.8846154,36.3461538 C29.8846154,39.4692308 32.4153846,42 35.5384615,42 C38.6615385,42 41.1923077,39.4692308 41.1923077,36.3461538 C41.1923077,33.2230769 35.5384615,25.8461538 35.5384615,25.8461538 C35.5384615,25.8461538 29.8846154,33.2230769 29.8846154,36.3461538" id="Fill-3"></path>
                        </g>
                    </g>
                </g>
            </g>
        </g>
    </g>
</svg>